<svg xmlns="http://www.w3.org/2000/svg" width="90" height="11" fill="none"><g clipPath="url(#a)"><path fill="#fff" d="M0 .246h3.693A3.696 3.696 0 0 1 5.194.54c.437.178.832.446 1.157.787.319.334.57.727.739 1.156.304.786.343 1.65.11 2.46a3.184 3.184 0 0 1-.443.946 3.481 3.481 0 0 1-1.6 1.34l2.056 3.357H5.28L3.385 7.49H1.686v3.135H-.012L0 .246Zm3.693 5.718c.28.001.557-.058.812-.172.232-.112.44-.266.615-.455.342-.417.529-.938.53-1.476a2.15 2.15 0 0 0-.148-.8 2.225 2.225 0 0 0-.382-.663 1.87 1.87 0 0 0-1.427-.627H1.686v4.193h2.007ZM20.826.246l.443 1.316h3.89l.443-1.316h1.785l-3.57 10.33h-1.23L19.016.245h1.809Zm2.376 7.513 1.44-4.673h-2.856l1.416 4.673Zm22.573-4.513-2.387 7.378h-1.231L38.587.295h1.785l2.376 7.378L45.135.295h1.231l2.4 7.378L51.142.295h1.785l-3.557 10.33h-1.231l-2.364-7.379Zm19.411-3h1.76v10.378h-1.76V.246Zm24.802 7.009a4.436 4.436 0 0 1-.603 1.402c-.291.438-.653.824-1.071 1.143a5.013 5.013 0 0 1-1.465.763 5.813 5.813 0 0 1-1.772.27 5.554 5.554 0 0 1-2.265-.442A5.034 5.034 0 0 1 81.1 9.16a5.31 5.31 0 0 1-1.083-1.722 5.959 5.959 0 0 1 0-4.094A5.268 5.268 0 0 1 82.726.382a5.026 5.026 0 0 1 2.19-.456 6.16 6.16 0 0 1 2.044.32 4.678 4.678 0 0 1 1.526.848c.415.342.762.76 1.022 1.23.246.491.412 1.018.492 1.562h-1.785a3.145 3.145 0 0 0-.357-.984 2.853 2.853 0 0 0-.64-.787 3.226 3.226 0 0 0-.923-.529 3.462 3.462 0 0 0-1.157-.184 3.695 3.695 0 0 0-1.588.32 3.483 3.483 0 0 0-1.169.86 3.591 3.591 0 0 0-.726 1.23 4.14 4.14 0 0 0-.259 1.451 4.436 4.436 0 0 0 .259 1.512c.17.457.43.875.763 1.23.344.368.764.658 1.23.849.532.214 1.102.319 1.675.307a2.87 2.87 0 0 0 .898-.148c.297-.106.578-.25.837-.43.254-.182.478-.402.665-.652.191-.247.337-.526.43-.824l1.835.148Z"/></g><defs><clipPath id="a"><path fill="#fff" d="M0 0h90v10.833H0z"/></clipPath></defs></svg>